<svg width="22" height="23" viewBox="0 0 22 23" fill="none" xmlns="http://www.w3.org/2000/svg">
<path d="M11 2.482C13.937 2.482 14.285 2.493 15.445 2.546C16.1424 2.55442 16.8331 2.68262 17.487 2.925C17.9649 3.10135 18.3971 3.38258 18.752 3.748C19.1174 4.10286 19.3987 4.53513 19.575 5.013C19.8174 5.66693 19.9456 6.35765 19.954 7.055C20.007 8.215 20.018 8.563 20.018 11.5C20.018 14.437 20.007 14.785 19.954 15.945C19.9456 16.6424 19.8174 17.3331 19.575 17.987C19.392 18.4615 19.1117 18.8924 18.752 19.252C18.3924 19.6117 17.9615 19.892 17.487 20.075C16.8331 20.3174 16.1424 20.4456 15.445 20.454C14.285 20.507 13.937 20.518 11 20.518C8.063 20.518 7.715 20.507 6.555 20.454C5.85731 20.4457 5.16624 20.3175 4.512 20.075C4.03449 19.8985 3.60258 19.6173 3.248 19.252C2.88258 18.8971 2.60135 18.4649 2.425 17.987C2.18262 17.3331 2.05442 16.6424 2.046 15.945C1.993 14.785 1.982 14.437 1.982 11.5C1.982 8.563 1.993 8.215 2.046 7.055C2.05442 6.35765 2.18262 5.66693 2.425 5.013C2.60135 4.53513 2.88258 4.10286 3.248 3.748C3.60286 3.38258 4.03513 3.10135 4.513 2.925C5.16693 2.68262 5.85765 2.55442 6.555 2.546C7.715 2.493 8.063 2.482 11 2.482ZM11 0.5C8.013 0.5 7.638 0.513 6.465 0.566C5.55252 0.584204 4.64972 0.756986 3.795 1.077C3.06067 1.35348 2.39552 1.7869 1.846 2.347C1.28638 2.89633 0.853315 3.56111 0.577 4.295C0.257327 5.14978 0.0848837 6.05257 0.067 6.965C0.012 8.138 0 8.513 0 11.5C0 14.487 0.013 14.862 0.066 16.035C0.0842038 16.9475 0.256986 17.8503 0.577 18.705C0.853479 19.4393 1.2869 20.1045 1.847 20.654C2.39633 21.2136 3.06111 21.6467 3.795 21.923C4.64978 22.2427 5.55257 22.4151 6.465 22.433C7.638 22.488 8.013 22.5 11 22.5C13.987 22.5 14.362 22.487 15.535 22.434C16.4475 22.4158 17.3503 22.243 18.205 21.923C18.936 21.6404 19.5998 21.2081 20.154 20.654C20.7081 20.0998 21.1404 19.436 21.423 18.705C21.7427 17.8502 21.9151 16.9474 21.933 16.035C21.988 14.862 22 14.487 22 11.5C22 8.513 21.987 8.138 21.934 6.965C21.9158 6.05252 21.743 5.14972 21.423 4.295C21.1465 3.56067 20.7131 2.89552 20.153 2.346C19.6037 1.78638 18.9389 1.35331 18.205 1.077C17.3502 0.757327 16.4474 0.584884 15.535 0.567C14.362 0.512 13.987 0.5 11 0.5ZM11 5.851C9.88273 5.851 8.79056 6.18231 7.86158 6.80303C6.93261 7.42375 6.20856 8.306 5.781 9.33822C5.35345 10.3704 5.24158 11.5063 5.45954 12.6021C5.67751 13.6979 6.21553 14.7044 7.00555 15.4944C7.79558 16.2845 8.80214 16.8225 9.89793 17.0405C10.9937 17.2584 12.1296 17.1466 13.1618 16.719C14.194 16.2914 15.0763 15.5674 15.697 14.6384C16.3177 13.7094 16.649 12.6173 16.649 11.5C16.649 10.0018 16.0538 8.56495 14.9944 7.50555C13.9351 6.44616 12.4982 5.851 11 5.851ZM11 15.167C10.2747 15.167 9.56576 14.9519 8.96272 14.549C8.35969 14.1461 7.88968 13.5734 7.61213 12.9033C7.33459 12.2332 7.26197 11.4959 7.40346 10.7846C7.54495 10.0733 7.8942 9.41988 8.40704 8.90704C8.91988 8.3942 9.57328 8.04495 10.2846 7.90346C10.9959 7.76197 11.7332 7.83459 12.4033 8.11213C13.0734 8.38968 13.6461 8.85969 14.049 9.46272C14.4519 10.0658 14.667 10.7747 14.667 11.5C14.667 12.4725 14.2807 13.4053 13.593 14.093C12.9053 14.7807 11.9725 15.167 11 15.167ZM16.872 4.308C16.6109 4.308 16.3557 4.38542 16.1386 4.53046C15.9216 4.6755 15.7524 4.88166 15.6525 5.12286C15.5526 5.36406 15.5264 5.62946 15.5774 5.88552C15.6283 6.14157 15.754 6.37678 15.9386 6.56138C16.1232 6.74599 16.3584 6.8717 16.6145 6.92264C16.8705 6.97357 17.1359 6.94743 17.3771 6.84752C17.6183 6.74761 17.8245 6.57843 17.9695 6.36135C18.1146 6.14428 18.192 5.88907 18.192 5.628C18.192 5.27791 18.0529 4.94217 17.8054 4.69462C17.5578 4.44707 17.2221 4.308 16.872 4.308Z" fill="white"/>
</svg>
